<?xml version="1.0" standalone="no"?><!DOCTYPE svg PUBLIC "-//W3C//DTD SVG 1.1//EN" "http://www.w3.org/Graphics/SVG/1.1/DTD/svg11.dtd"><svg t="1588071543480" class="icon" viewBox="0 0 1024 1024" version="1.1" xmlns="http://www.w3.org/2000/svg" p-id="2295" xmlns:xlink="http://www.w3.org/1999/xlink" width="24" height="24"><defs><style type="text/css"></style></defs><path d="M903.7 403.3c-19.6-46.8-47.6-88.8-83.4-124.8-35.8-36.1-77.6-64.4-124.1-84.2-48.2-20.5-99.6-30.9-152.6-30.9-52.7 0-114.7 12.9-165 34-32.1-12.9-79.3-39.1-96.5-49.1-9.6-5.6-21.6-5.6-31.2 0s-15.5 16-15.4 27.2c0 0.8 0.9 74 0.7 136.5-25.8 32.4-46.1 68.4-60.6 107.1-16.3 43.8-24.6 89.9-24.6 137 0 53 10.4 104.4 30.9 152.8 19.8 46.8 48.1 88.7 84.1 124.8s78 64.4 124.8 84.1c48.4 20.5 99.8 30.9 152.8 30.9 53 0 104.3-10.4 152.6-30.9 46.6-19.8 88.3-48.1 124.1-84.2 35.8-36 63.8-78 83.4-124.8C924 660.4 934.3 609 934.3 556S924 451.7 903.7 403.3zM776.3 789.9c-61.9 62.4-144.6 96.8-232.7 96.8-88.3 0-171.3-34.4-233.8-96.8C247.4 727.4 213 644.4 213 556c0-39.7 7-78.5 20.7-115.4 13.3-35.6 32.5-68.5 57.1-97.7 4.7-5.5 7.3-12.5 7.3-19.8 0.2-31.5 0.1-67.1-0.1-95.5 23.4 12.2 51 25.5 71.9 32.5 7.5 2.5 15.7 2 22.8-1.3 43.9-20.4 103.1-33.5 150.9-33.5 88.1 0 170.8 34.4 232.7 96.8 61.9 62.3 95.9 145.4 95.9 233.9 0.1 88.5-34 171.6-95.9 233.9z" p-id="2296" fill="#d81e06"></path><path d="M508 515.4a58.7 78.4 0 1 0 117.4 0 58.7 78.4 0 1 0-117.4 0Z" p-id="2297" fill="#d81e06"></path><path d="M667 515.4a58.7 78.4 0 1 0 117.4 0 58.7 78.4 0 1 0-117.4 0Z" p-id="2298" fill="#d81e06"></path></svg>