<?xml version="1.0" standalone="no"?><!DOCTYPE svg PUBLIC "-//W3C//DTD SVG 1.1//EN" "http://www.w3.org/Graphics/SVG/1.1/DTD/svg11.dtd"><svg t="1588071507744" class="icon" viewBox="0 0 1024 1024" version="1.1" xmlns="http://www.w3.org/2000/svg" p-id="1419" xmlns:xlink="http://www.w3.org/1999/xlink" width="24" height="24"><defs><style type="text/css"></style></defs><path d="M1023.965 320.004v127c0 42.546-8.532 70.636-30.967 96.994v351.997c0 70.696-61.215 128.005-134.18 128.005H165.186c-72.967 0-132.121-57.305-132.121-128.003l-0.967-352C12.284 519.33 0.035 482.102 0.035 448.004c0-18.236 0.237-50.084 0.8-63.996L0.036 320 186.205 0h651.59l186.17 320.004M96.22 895.999c0 35.34 32.48 64.002 68.964 64.002h693.632c36.483 0 71.026-28.662 71.026-64.002v-63.997H96.22v63.997z m0-127.999h833.622V573.413c-8.194 1.513-25.217 2.593-34.599 2.593-60.65 0-114.484-34.368-143.545-82.387-24.846 47.58-73.934 82.387-121.353 82.387-47.804 0-100.403-30.022-118.345-70.904-17.942 41.884-71.659 70.904-120.464 70.904-46.172 0-94.568-31.971-120.471-77.57-23.066 46.903-77.62 77.57-112.025 77.57-16.848 0-47.791 1.849-62.82-3.47V768zM62.156 448c0 44.182 49.7 65.004 97.884 65.004 47.464 0 96.945-32.824 96.945-65.003h30.327c0 41.277 56.377 63.997 105.755 63.997 47.374 0 103.417-31.721 103.417-63.997h31.03c0 31.28 55.103 63.997 102.476 63.997 49.377 0 106.758-31.721 106.758-63.997h30.265c0 32.83 76.316 64.058 127.812 64.085 44.63 0.023 66.625-19.898 67.08-64.085h0.004v-63.994H62.091l0.065 63.994z m900.81-127.998l-1.06-0.003L809.491 64.008H214.614L65.386 319.999l897.582 0.005v-0.002z" p-id="1420"></path></svg>