<?xml version="1.0" standalone="no"?><!DOCTYPE svg PUBLIC "-//W3C//DTD SVG 1.1//EN" "http://www.w3.org/Graphics/SVG/1.1/DTD/svg11.dtd"><svg t="1586400409274" class="icon" viewBox="0 0 1024 1024" version="1.1" xmlns="http://www.w3.org/2000/svg" p-id="3084" width="24" height="24" xmlns:xlink="http://www.w3.org/1999/xlink"><defs><style type="text/css"></style></defs><path d="M267 901.5h40.9-16.2c-13.8-0.8-24.7-12.2-24.7-26.2v26.2z m407-1h40.9-16.2c-13.8-0.8-24.7-12.2-24.7-26.2v26.2z" fill="#2c2c2c" p-id="3085"></path><path d="M754.8 900.5h-40.9 16.2c13.8-0.8 24.7-12.2 24.7-26.2v26.2z m-406 0h-40.9 16.2c13.8-0.8 24.7-12.2 24.7-26.2v26.2z m243.9-163.3h-40.9H568c13.8 0.8 24.7 12.2 24.7 26.2v-26.2zM185.2 573.7h-40.9 16.2c13.8 0.8 24.7 12.2 24.7 26.2v-26.2z m244.4 163.5h40.9-16.2c-13.8 0.8-24.7 12.2-24.7 26.2v-26.2z" fill="#2c2c2c" p-id="3086"></path><path d="M985.6 503.5l-445.1-445c-8.2-8.2-18.9-12.1-29.6-12-10.7-0.2-21.4 3.8-29.6 12l-445.1 445c-1.6 1.6-3.1 3.4-4.4 5.2-5.3 6.9-8.5 15.5-8.5 24.9 0 22.6 18.3 40.9 40.9 40.9h120.9V914c0 37.6 30.5 68.1 68.1 68.1h0.5v0.1h108.7c34.7 0 63.3-26 67.5-59.5V737.5h162.3l0.4 122V914c0 37.6 30.5 68.1 68.1 68.1h0.5v0.1h108.2c34 0 62.2-25 67.3-57.6v-391c0-22.6-18.3-40.9-40.9-40.9-22.6 0-40.9 18.3-40.9 40.9v366.8h-80.8V716.2c-3.5-32.6-30.1-58.3-63.2-60.5H471.5v0.1H417c-37.6 0-68.1 30.5-68.1 68.1v0.5h-0.1l-0.6 54.1v121.9H267V561.2c0-37.6-30.5-68.1-68.1-68.1h-0.5v-0.1h-7.7v-0.2h-28l348.2-348.2 416.8 416.8c16 16 41.9 16 57.9 0 15.9-16 15.9-41.9 0-57.9z" fill="#2c2c2c" p-id="3087"></path></svg>
