<?xml version="1.0" standalone="no"?><!DOCTYPE svg PUBLIC "-//W3C//DTD SVG 1.1//EN" "http://www.w3.org/Graphics/SVG/1.1/DTD/svg11.dtd"><svg t="1586400691147" class="icon" viewBox="0 0 1024 1024" version="1.1" xmlns="http://www.w3.org/2000/svg" p-id="9523" xmlns:xlink="http://www.w3.org/1999/xlink" width="24" height="24"><defs><style type="text/css"></style></defs><path d="M481.882353 542.117647a240.941176 240.941176 0 1 0 0-481.882353 240.941176 240.941176 0 0 0 0 481.882353z m0 60.235294A301.176471 301.176471 0 1 1 481.882353 0a301.176471 301.176471 0 0 1 0 602.352941z" fill="#2c2c2c" p-id="9524"></path><path d="M3.734588 963.764706a481.942588 481.942588 0 0 1 956.29553 0H899.312941a421.767529 421.767529 0 0 0-834.740706 0H3.614118zM963.764706 1024h-60.235294 60.235294zM60.235294 1024H0h60.235294z" fill="#2c2c2c" p-id="9525"></path></svg>
