<?xml version="1.0" standalone="no"?><!DOCTYPE svg PUBLIC "-//W3C//DTD SVG 1.1//EN" "http://www.w3.org/Graphics/SVG/1.1/DTD/svg11.dtd"><svg t="1588145669292" class="icon" viewBox="0 0 1024 1024" version="1.1" xmlns="http://www.w3.org/2000/svg" p-id="2386" xmlns:xlink="http://www.w3.org/1999/xlink" width="20" height="20"><defs><style type="text/css"></style></defs><path d="M436.736 642.7136L286.1056 491.9808a42.496 42.496 0 0 0-60.2624 0.1024 42.8032 42.8032 0 0 0-0.1024 60.2624l176.64 176.64a42.8032 42.8032 0 0 0 35.0208 16.9984 42.5472 42.5472 0 0 0 33.1264-16.2816L828.416 371.712a42.7008 42.7008 0 0 0-60.3648-60.3648l-331.3152 331.3664zM0 512C0 229.2224 229.1712 0 512 0c282.7776 0 512 229.1712 512 512 0 282.7776-229.1712 512-512 512-282.7776 0-512-229.1712-512-512z" fill="#d81e06" p-id="2387"></path></svg>
